<?xml version="1.0" encoding="UTF-8"?><svg id="Layer_2" xmlns="http://www.w3.org/2000/svg" viewBox="0 0 490.56 186.65"><defs><style>.cls-1{fill:#00a99d;}</style></defs><g id="Layer_1-2"><path d="m119.48,98.81l22.12,57.48,21.13-57.48h27.75c.67,0,1.06.6,1.08,1.09,0,.69-.55,1.04-1.11,1.1-5.56.82-7.55,4.49-7.55,12.94v56.59c0,8.46,1.99,12.12,7.55,12.94.55.06,1.11.41,1.11,1.1-.01.49-.41,1.09-1.08,1.09h-35.21c-.77,0-1.2-.32-1.2-1.09,0-.67.37-.98,1.2-1.11,6.06-.78,7.47-4.41,7.47-12.93v-65.43l-29.58,80.56h-1.9l-27.9-72.59c0,.29,0,.58,0,.88v56.59c0,.23,0,.45,0,.66h0c.1,7.99,2.13,11.48,7.54,12.28.55.06,1.11.41,1.11,1.1-.01.49-.41,1.09-1.08,1.09h-17.21c-.77,0-1.2-.32-1.2-1.09,0-.67.37-.98,1.2-1.11,6.06-.78,7.47-4.41,7.47-12.93v-56.59c0-8.52-1.4-12.16-7.47-12.93-.83-.13-1.2-.44-1.2-1.11,0-.77.44-1.09,1.2-1.09h25.78Z"/><path d="m224.68,130.77v39.76c0,8.46,1.99,12.12,7.55,12.95.55.06,1.11.41,1.11,1.1-.01.49-.41,1.09-1.08,1.09h-35.21c-.77,0-1.2-.32-1.2-1.09,0-.67.37-.98,1.2-1.11,6.06-.78,7.47-4.41,7.47-12.93v-14.01c0-8.97-1.84-13.74-7.07-14.74-.59-.11-1.23-.26-1.23-1.11,0-.66.5-1.07,1.2-1.09,14.04-.44,24.37-8.76,25.44-9.66.71-.59,1.83-.23,1.83.85Zm0-20.19c0,6.5-5.27,11.77-11.77,11.77-4.96,0-11.77-4.36-11.77-11.77,0-6.5,5.27-11.77,11.77-11.77,5.38,0,11.77,4.37,11.77,11.77Z"/><path d="m270.07,130.61c.66-.45.97-.95,1.75-.97.49-.01,1.06.36,1.12.97l1.45,15.89c.07.76-.2,1.23-.97,1.3-.66.06-1.01-.28-1.21-1.1-1.09-4.83-2.92-9.88-7.21-12.7-2.41-1.56-5.34-2.18-8.39-2.2-6.5,0-8.52,5.77-6.05,10.59,4.26,8.29,31.26,10.2,31.26,24.99,0,11.32-10.42,19.16-27.34,19.16-15.02,0-23.08-8.96-20.84-17.37,1.12-4.15,4.37-6.05,7.73-6.05,5.27,0,9.2,3.92,8.56,8.01-.73,4.67-5.11,4.33-5.11,8.01.11,2.69,3.68,5.21,8.54,5.21,8.07,0,10.98-5.1,10.98-9.25,0-13-28.46-10.76-30.14-28.35-.9-9.3,5.38-17.15,22.41-17.15,8.26.05,12.3,1.78,13.47.98Z"/><path d="m309.58,98.9c.34.15.64.52.64,1.05v35.17c3.92-3.25,8.63-5.04,13.56-5.38,16.7-1.12,23.93,7.21,25.54,20.28l2.52,20.51c1.03,8.42,3.46,12.09,9.06,12.93.64.09,1.29.38,1.33,1.11.02.55-.43,1.09-1.2,1.09h-34.99c-.66,0-1.31-.22-1.31-1.09,0-.71.57-1.06,1.27-1.14,5.79-.83,6.64-4.47,5.67-12.91l-2.17-18.94c-1.53-13.35-6.95-19.43-12.77-17.86-3.25.9-6.5,3.52-6.5,16.52v20.28c0,8.41,1.96,12.08,7.46,12.93.62.09,1.2.36,1.2,1.11,0,.66-.51,1.09-1.24,1.09h-35.03c-.74,0-1.22-.31-1.22-1.09,0-.69.61-1.05,1.35-1.13,5.94-.82,7.32-4.46,7.32-12.92v-44.82c0-9.05-1.88-13.82-7.2-14.77-.61,0-1.1-.48-1.1-1.09.02-.51.42-1.09,1.1-1.09,14.09-.43,24.47-8.76,25.55-9.66.33-.28.77-.38,1.19-.2Z"/><path d="m409.63,128.95c10.2,0,16.25,9.3,10.87,18.15-2.43,3.96-7.14,5.22-10.98,4.11-2.9-.84-5.05-2.42-5.05-5.89,0-4.61,5.05-3.94,4.99-7.57-.06-3.19-2.37-6.01-6.22-5.36-6.6,1.98-7.96,8.73-7.96,21.1v17.03c0,8.46,1.99,12.12,7.55,12.95.55.06,1.11.41,1.11,1.1-.01.49-.41,1.09-1.08,1.09h-35.21c-.77,0-1.2-.32-1.2-1.09,0-.67.37-.98,1.2-1.11,6.06-.78,7.47-4.41,7.47-12.93v-14.01c0-8.97-1.84-13.74-7.07-14.74-.59-.11-1.24-.26-1.24-1.11,0-.66.5-1.07,1.2-1.09,14.04-.44,24.37-8.76,25.44-9.66.71-.59,1.83-.23,1.83.85v4.35c1.84-1.77,4.37-4.15,8.96-5.49,1.91-.45,3.7-.67,5.38-.67h0Z"/><path d="m478.15,150.02l2.13,18.71c1.49,9.34,4.5,11.9,6.92,12.36.66.12,1.59-.09,2.31-.08,1.1.02,1.46,1.49.5,2.03-4.05,2.35-7.71,3.59-13.78,3.6-5.78.02-11.69-1.75-14.43-7.27,0,.11-5.72,7.17-18.27,7.17-9.86,0-19.72-3.7-19.72-14.46,0-18.33,20.7-14.32,29.64-18.39,3.73-1.7,4.42-4.09,3.86-8.28-.64-4.84-3.17-13.62-10.51-13.62-4.6,0-6.21,2.64-6.25,5.21-.07,4.23,6.5,4.29,5.43,10.4-1.27,7.25-14.28,8.39-16.57-.31-2.24-8.4,4.05-16.74,19.05-17.48,16.36-.81,27.21,4.91,29.7,20.4Zm-23.78,6.01c-4.6,2.81-11.52,5.5-11.52,14.05,0,14.46,18.94,14.23,17.71,4.15l-2.44-21.49c-1,1.44-2.3,2.5-3.75,3.29Z"/><path class="cls-1" d="m43.9,0h1.46l29.85,71.7.07.16c1.66,3.35,6.22,12.8,9.49,12.8.59.06,1.24.26,1.24,1.1,0,.65-.59,1.09-1.26,1.09h-31.91c-.77,0-1.62-.15-1.62-1.09,0-.78.55-.98,1.29-1.11,5.17-1.58,3.68-7.91,1.78-12.81l-1.76-4.26H18.86l-2.02,5.38c-1.6,4.19-3.89,11.7,2.28,11.7.55.06,1.11.41,1.11,1.1-.01.49-.41,1.09-1.08,1.09H1.2c-.77,0-1.2-.32-1.2-1.09,0-.67.37-.98,1.2-1.11,6.4-.12,10.12-3.29,13.83-13.05L41.99,0h1.91Zm-24.22,65.42h31.94l-16.73-40.39-15.21,40.39Z"/><path class="cls-1" d="m118.64.16c.29.17.52.5.52.98v59.26l16.31-16.42c2.17-2.42,4.18-5.11,4.56-6.48.86-3.13-2.06-4.06-5.04-4.5-.55-.06-1.11-.41-1.11-1.1.01-.49.41-1.09,1.08-1.09h22.37c.77,0,1.2.32,1.2,1.09,0,.67-.37.98-1.2,1.11-3.72.48-7.35,1.18-12.91,5.43-1.2.93-2.5,2.12-3.72,3.34l-4.75,4.81,15.62,25.13c5.87,8.46,8.65,12.12,14.78,12.95.59.06,1.24.26,1.24,1.1,0,.65-.59,1.09-1.26,1.09h-31.91c-.77,0-1.62-.15-1.62-1.09,0-.78.55-.98,1.29-1.11,5.52-.78,3.16-4.37-2.69-12.93l-8.29-12.14-3.95,3.99v8.15c0,8.46,1.99,12.12,7.55,12.95.55.06,1.11.41,1.11,1.1-.01.49-.41,1.09-1.08,1.09h-35.21c-.77,0-1.2-.32-1.2-1.09,0-.67.37-.98,1.2-1.11,6.06-.78,7.47-4.41,7.47-12.93V26.89c0-8.97-1.84-13.74-7.07-14.74-.59-.11-1.23-.26-1.23-1.11,0-.66.5-1.07,1.2-1.09,14.04-.44,24.37-8.76,25.44-9.66.23-.2.52-.3.8-.29.17,0,.34.06.51.16Z"/><path class="cls-1" d="m204.21,31.8c.66-.45.97-.95,1.75-.97.49-.01,1.06.36,1.12.97l1.45,15.89c.07.76-.2,1.23-.97,1.3-.66.06-1.01-.28-1.21-1.1-1.09-4.83-2.92-9.88-7.21-12.7-2.41-1.56-5.34-2.18-8.39-2.2-6.5,0-8.52,5.77-6.05,10.59,4.26,8.29,31.26,10.2,31.26,24.99,0,11.32-10.42,19.16-27.34,19.16-15.02,0-23.08-8.96-20.84-17.37,1.12-4.15,4.37-6.05,7.73-6.05,5.27,0,9.2,3.92,8.56,8.01-.73,4.67-5.11,4.33-5.11,8.01.11,2.69,3.68,5.21,8.54,5.21,8.07,0,10.98-5.1,10.98-9.25,0-13-28.46-10.76-30.14-28.35-.9-9.3,5.38-17.15,22.41-17.15,8.26.05,12.3,1.78,13.47.98Z"/><path class="cls-1" d="m243.71.09c.34.15.64.52.64,1.05v35.17c3.92-3.25,8.63-5.04,13.56-5.38,16.7-1.12,23.93,7.21,25.54,20.28l2.52,20.51c1.03,8.42,3.46,12.09,9.06,12.93.64.09,1.29.38,1.33,1.11.02.55-.43,1.09-1.2,1.09h-34.99c-.66,0-1.31-.22-1.31-1.09,0-.71.57-1.06,1.26-1.14,5.79-.83,6.64-4.47,5.67-12.91l-2.17-18.94c-1.53-13.35-6.95-19.43-12.77-17.86-3.25.9-6.5,3.52-6.5,16.52v20.28c0,8.41,1.96,12.08,7.46,12.93.62.09,1.2.36,1.2,1.11,0,.66-.51,1.09-1.24,1.09h-35.03c-.74,0-1.22-.31-1.22-1.09,0-.69.61-1.05,1.35-1.13,5.94-.82,7.32-4.46,7.32-12.92V26.89c0-9.05-1.88-13.82-7.2-14.77-.61,0-1.1-.48-1.1-1.09.02-.51.42-1.09,1.1-1.09,14.09-.43,24.47-8.76,25.55-9.66.33-.28.77-.38,1.19-.2Z"/><path class="cls-1" d="m350.63,51.21l2.13,18.71c1.49,9.34,4.5,11.9,6.92,12.36.66.12,1.59-.09,2.31-.08,1.1.02,1.46,1.49.5,2.03-4.05,2.35-7.71,3.59-13.78,3.6-5.78.02-11.69-1.75-14.43-7.27,0,.11-5.72,7.17-18.27,7.17-9.86,0-19.72-3.7-19.72-14.46,0-18.33,20.7-14.32,29.64-18.39,3.73-1.7,4.42-4.09,3.86-8.28-.64-4.84-3.17-13.62-10.51-13.62-4.6,0-6.21,2.64-6.25,5.21-.07,4.23,6.5,4.29,5.43,10.4-1.27,7.25-14.28,8.39-16.57-.31-2.24-8.4,4.05-16.74,19.05-17.48,16.36-.81,27.21,4.91,29.7,20.4Zm-23.78,6.01c-4.6,2.81-11.52,5.5-11.52,14.05,0,14.46,18.94,14.23,17.71,4.15l-2.44-21.49c-1,1.44-2.3,2.5-3.75,3.29Z"/><path class="cls-1" d="m408.89,30.14c10.2,0,16.25,9.3,10.87,18.15-2.43,3.96-7.14,5.22-10.98,4.11-2.9-.84-5.05-2.42-5.05-5.89,0-4.61,5.05-3.94,4.99-7.57-.06-3.19-2.37-6.01-6.22-5.36-6.6,1.98-7.96,8.73-7.96,21.1v17.03c0,8.46,1.99,12.12,7.55,12.95.55.06,1.11.41,1.11,1.1-.01.49-.41,1.09-1.08,1.09h-35.21c-.77,0-1.2-.32-1.2-1.09,0-.67.37-.98,1.2-1.11,6.06-.78,7.47-4.41,7.47-12.93v-14.01c0-8.97-1.84-13.74-7.07-14.74-.59-.11-1.24-.26-1.24-1.11,0-.66.5-1.07,1.2-1.09,14.04-.44,24.37-8.76,25.44-9.66.71-.59,1.83-.23,1.83.85v4.35c1.84-1.77,4.37-4.15,8.96-5.49,1.91-.45,3.7-.67,5.38-.67h0Z"/></g></svg>